<svg xmlns="http://www.w3.org/2000/svg" xmlns:xlink="http://www.w3.org/1999/xlink" width="500" zoomAndPan="magnify" viewBox="0 0 375 374.999991" height="500" preserveAspectRatio="xMidYMid meet" version="1.0"><rect x="-37.5" width="450" fill="#ffffff" y="-37.499999" height="449.999989" fill-opacity="1"/><rect x="-37.5" width="450" fill="#ffffff" y="-37.499999" height="449.999989" fill-opacity="1"/><rect x="-37.5" width="450" fill="#ffffff" y="-37.499999" height="449.999989" fill-opacity="1"/><path fill="#040606" d="M 187.5 28.863281 C 100.007812 28.863281 28.863281 100.007812 28.863281 187.5 C 28.863281 274.992188 100.007812 346.136719 187.5 346.136719 C 274.992188 346.136719 346.136719 274.992188 346.136719 187.5 C 346.136719 100.007812 274.992188 28.863281 187.5 28.863281 Z M 187.5 375 C 84.09375 375 0 290.90625 0 187.5 C 0 84.09375 84.09375 0 187.5 0 C 290.90625 0 375 84.09375 375 187.5 C 375 290.90625 290.90625 375 187.5 375 " fill-opacity="1" fill-rule="nonzero"/><path fill="#040606" d="M 100.972656 288.441406 C 97.277344 288.441406 93.582031 287.042969 90.753906 284.214844 C 85.128906 278.585938 85.128906 269.464844 90.753906 263.839844 L 263.839844 90.753906 C 269.464844 85.128906 278.585938 85.128906 284.246094 90.753906 C 289.871094 96.414062 289.871094 105.535156 284.246094 111.160156 L 111.160156 284.214844 C 108.332031 287.042969 104.667969 288.441406 100.972656 288.441406 " fill-opacity="1" fill-rule="nonzero"/><path fill="#040606" d="M 274.058594 288.441406 C 270.332031 288.441406 266.636719 287.042969 263.839844 284.214844 L 90.753906 111.160156 C 85.128906 105.535156 85.128906 96.414062 90.753906 90.753906 C 96.414062 85.128906 105.535156 85.128906 111.160156 90.753906 L 284.246094 263.839844 C 289.871094 269.464844 289.871094 278.585938 284.246094 284.214844 C 281.417969 287.042969 277.722656 288.441406 274.058594 288.441406 " fill-opacity="1" fill-rule="nonzero"/></svg>